<svg width="100%" height="100%" viewBox="0 0 796 508" fill="none" xmlns="http://www.w3.org/2000/svg">
<rect width="100%" height="100%" rx="6" fill="white"/>
<path opacity="0.3" d="M72.9998 428C242.5 428 518.815 153 724 88L724 224C724 224 546.5 252.5 400 303C275.5 342.5 170.5 428 72.9998 428Z" fill="url(#paint0_linear_5119_17)"/>
<path opacity="0.3" d="M237 373.755C392.362 290.201 573 249 724 224V468H72V428C120.124 428 176.399 406.346 237 373.755Z" fill="url(#paint1_linear_5119_17)"/>
<rect x="71" y="40" width="1" height="428" fill="#F0F3F4"/>
<rect x="40" y="360" width="1" height="716" transform="rotate(-90 40 360)" fill="#F0F3F4"/>
<rect x="40" y="255" width="1" height="716" transform="rotate(-90 40 255)" fill="#F0F3F4"/>
<rect x="40" y="150" width="1" height="716" transform="rotate(-90 40 150)" fill="#F0F3F4"/>
<rect x="235" y="40" width="1" height="428" fill="#F0F3F4"/>
<rect x="399" y="40" width="1" height="428" fill="#F0F3F4"/>
<rect x="563" y="40" width="1" height="428" fill="#F0F3F4"/>
<path d="M726.752 87.1294L724.871 90.7524L721.248 88.8706L723.129 85.2476L726.752 87.1294ZM69.1132 428L72 425.113L74.8868 428L72 430.887L69.1132 428ZM724.151 88.4767C672.834 104.708 617.156 134.058 559.807 168.974C502.459 203.889 443.473 244.348 385.526 282.792C327.589 321.229 270.692 357.65 217.553 384.462C164.424 411.269 114.995 428.5 72 428.5V427.5C114.755 427.5 164.014 410.356 217.103 383.569C270.183 356.787 327.036 320.396 384.974 281.958C442.902 243.527 501.916 203.048 559.287 168.12C616.656 133.192 672.416 103.792 723.849 87.5233L724.151 88.4767Z" fill="url(#paint2_linear_5119_17)"/>
<path d="M726.848 223.528L724.472 226.848L721.152 224.472L723.528 221.152L726.848 223.528ZM237 373.755L237.237 374.195L237 373.755ZM69.1132 428L72 425.113L74.8868 428L72 430.887L69.1132 428ZM724.082 224.493C573.097 249.491 392.525 290.681 237.237 374.195L236.763 373.314C392.199 289.721 572.903 248.509 723.918 223.507L724.082 224.493ZM237.237 374.195C176.622 406.794 120.255 428.5 72 428.5V427.5C119.994 427.5 176.176 405.898 236.763 373.314L237.237 374.195Z" fill="url(#paint3_linear_5119_17)"/>
<g filter="url(#filter0_f_5119_17)">
<circle cx="236" cy="374" r="4" fill="#2E00B8"/>
</g>
<circle cx="236" cy="374" r="4" fill="#5048ED"/>
<g filter="url(#filter1_f_5119_17)">
<circle cx="400" cy="273" r="4" fill="#EC6356"/>
</g>
<circle cx="400" cy="273" r="4" fill="#EC6356"/>
<g filter="url(#filter2_f_5119_17)">
<circle cx="400" cy="303" r="4" fill="#2E00B8"/>
</g>
<circle cx="400" cy="303" r="4" fill="#2CBE90"/>
<g filter="url(#filter3_f_5119_17)">
<circle cx="564" cy="166" r="4" fill="#2E00B8"/>
</g>
<circle cx="564" cy="166" r="4" fill="#EC6356"/>
<g filter="url(#filter4_f_5119_17)">
<circle cx="564" cy="256" r="4" fill="#186A50"/>
</g>
<circle cx="564" cy="256" r="4" fill="#2CBE90"/>
<path d="M224.892 345.658L224.082 343.264C224.022 343.112 223.958 342.934 223.89 342.73C223.822 342.522 223.754 342.298 223.686 342.058C223.626 342.302 223.562 342.528 223.494 342.736C223.426 342.944 223.362 343.124 223.302 343.276L222.498 345.658H224.892ZM228.114 349H226.542C226.366 349 226.224 348.96 226.116 348.88C226.008 348.796 225.926 348.69 225.87 348.562L225.354 347.038H222.03L221.514 348.562C221.47 348.674 221.39 348.776 221.274 348.868C221.162 348.956 221.022 349 220.854 349H219.27L222.654 340.258H224.73L228.114 349ZM232.128 344.548C232.656 344.548 233.036 344.422 233.268 344.17C233.5 343.918 233.616 343.566 233.616 343.114C233.616 342.914 233.586 342.732 233.526 342.568C233.466 342.404 233.374 342.264 233.25 342.148C233.13 342.028 232.976 341.936 232.788 341.872C232.604 341.808 232.384 341.776 232.128 341.776H231.072V344.548H232.128ZM232.128 340.258C232.744 340.258 233.272 340.332 233.712 340.48C234.156 340.624 234.52 340.824 234.804 341.08C235.092 341.336 235.304 341.638 235.44 341.986C235.576 342.334 235.644 342.71 235.644 343.114C235.644 343.55 235.574 343.95 235.434 344.314C235.294 344.678 235.08 344.99 234.792 345.25C234.504 345.51 234.138 345.714 233.694 345.862C233.254 346.006 232.732 346.078 232.128 346.078H231.072V349H229.044V340.258H232.128ZM239.996 344.548C240.524 344.548 240.904 344.422 241.136 344.17C241.368 343.918 241.484 343.566 241.484 343.114C241.484 342.914 241.454 342.732 241.394 342.568C241.334 342.404 241.242 342.264 241.118 342.148C240.998 342.028 240.844 341.936 240.656 341.872C240.472 341.808 240.252 341.776 239.996 341.776H238.94V344.548H239.996ZM239.996 340.258C240.612 340.258 241.14 340.332 241.58 340.48C242.024 340.624 242.388 340.824 242.672 341.08C242.96 341.336 243.172 341.638 243.308 341.986C243.444 342.334 243.512 342.71 243.512 343.114C243.512 343.55 243.442 343.95 243.302 344.314C243.162 344.678 242.948 344.99 242.66 345.25C242.372 345.51 242.006 345.714 241.562 345.862C241.122 346.006 240.6 346.078 239.996 346.078H238.94V349H236.912V340.258H239.996ZM252.919 347.656V349H247.939V347.656H249.619V343.246C249.619 343.134 249.621 343.022 249.625 342.91C249.629 342.794 249.635 342.678 249.643 342.562L248.647 343.39C248.559 343.458 248.471 343.5 248.383 343.516C248.299 343.528 248.219 343.528 248.143 343.516C248.067 343.5 247.999 343.474 247.939 343.438C247.879 343.398 247.835 343.358 247.807 343.318L247.219 342.538L249.943 340.252H251.479V347.656H252.919Z" fill="#495057"/>
<path d="M392.892 244.658L392.082 242.264C392.022 242.112 391.958 241.934 391.89 241.73C391.822 241.522 391.754 241.298 391.686 241.058C391.626 241.302 391.562 241.528 391.494 241.736C391.426 241.944 391.362 242.124 391.302 242.276L390.498 244.658H392.892ZM396.114 248H394.542C394.366 248 394.224 247.96 394.116 247.88C394.008 247.796 393.926 247.69 393.87 247.562L393.354 246.038H390.03L389.514 247.562C389.47 247.674 389.39 247.776 389.274 247.868C389.162 247.956 389.022 248 388.854 248H387.27L390.654 239.258H392.73L396.114 248ZM400.128 243.548C400.656 243.548 401.036 243.422 401.268 243.17C401.5 242.918 401.616 242.566 401.616 242.114C401.616 241.914 401.586 241.732 401.526 241.568C401.466 241.404 401.374 241.264 401.25 241.148C401.13 241.028 400.976 240.936 400.788 240.872C400.604 240.808 400.384 240.776 400.128 240.776H399.072V243.548H400.128ZM400.128 239.258C400.744 239.258 401.272 239.332 401.712 239.48C402.156 239.624 402.52 239.824 402.804 240.08C403.092 240.336 403.304 240.638 403.44 240.986C403.576 241.334 403.644 241.71 403.644 242.114C403.644 242.55 403.574 242.95 403.434 243.314C403.294 243.678 403.08 243.99 402.792 244.25C402.504 244.51 402.138 244.714 401.694 244.862C401.254 245.006 400.732 245.078 400.128 245.078H399.072V248H397.044V239.258H400.128ZM407.996 243.548C408.524 243.548 408.904 243.422 409.136 243.17C409.368 242.918 409.484 242.566 409.484 242.114C409.484 241.914 409.454 241.732 409.394 241.568C409.334 241.404 409.242 241.264 409.118 241.148C408.998 241.028 408.844 240.936 408.656 240.872C408.472 240.808 408.252 240.776 407.996 240.776H406.94V243.548H407.996ZM407.996 239.258C408.612 239.258 409.14 239.332 409.58 239.48C410.024 239.624 410.388 239.824 410.672 240.08C410.96 240.336 411.172 240.638 411.308 240.986C411.444 241.334 411.512 241.71 411.512 242.114C411.512 242.55 411.442 242.95 411.302 243.314C411.162 243.678 410.948 243.99 410.66 244.25C410.372 244.51 410.006 244.714 409.562 244.862C409.122 245.006 408.6 245.078 407.996 245.078H406.94V248H404.912V239.258H407.996ZM420.469 246.32C420.669 246.32 420.827 246.376 420.943 246.488C421.059 246.596 421.117 246.74 421.117 246.92V248H414.973V247.4C414.973 247.284 414.997 247.16 415.045 247.028C415.093 246.896 415.177 246.776 415.297 246.668L417.817 244.13C418.033 243.914 418.221 243.708 418.381 243.512C418.541 243.316 418.673 243.124 418.777 242.936C418.881 242.744 418.959 242.554 419.011 242.366C419.063 242.174 419.089 241.972 419.089 241.76C419.089 241.412 419.005 241.146 418.837 240.962C418.673 240.774 418.421 240.68 418.081 240.68C417.805 240.68 417.571 240.754 417.379 240.902C417.191 241.046 417.061 241.226 416.989 241.442C416.905 241.662 416.795 241.808 416.659 241.88C416.523 241.952 416.329 241.968 416.077 241.928L415.093 241.754C415.157 241.318 415.279 240.938 415.459 240.614C415.643 240.29 415.869 240.02 416.137 239.804C416.409 239.588 416.719 239.428 417.067 239.324C417.415 239.216 417.789 239.162 418.189 239.162C418.621 239.162 419.009 239.226 419.353 239.354C419.701 239.478 419.997 239.652 420.241 239.876C420.485 240.1 420.671 240.368 420.799 240.68C420.931 240.988 420.997 241.328 420.997 241.7C420.997 242.02 420.951 242.316 420.859 242.588C420.771 242.86 420.649 243.12 420.493 243.368C420.337 243.612 420.155 243.85 419.947 244.082C419.743 244.31 419.525 244.542 419.293 244.778L417.583 246.53C417.803 246.462 418.021 246.41 418.237 246.374C418.453 246.338 418.653 246.32 418.837 246.32H420.469Z" fill="#495057"/>
<path d="M551.892 137.658L551.082 135.264C551.022 135.112 550.958 134.934 550.89 134.73C550.822 134.522 550.754 134.298 550.686 134.058C550.626 134.302 550.562 134.528 550.494 134.736C550.426 134.944 550.362 135.124 550.302 135.276L549.498 137.658H551.892ZM555.114 141H553.542C553.366 141 553.224 140.96 553.116 140.88C553.008 140.796 552.926 140.69 552.87 140.562L552.354 139.038H549.03L548.514 140.562C548.47 140.674 548.39 140.776 548.274 140.868C548.162 140.956 548.022 141 547.854 141H546.27L549.654 132.258H551.73L555.114 141ZM559.128 136.548C559.656 136.548 560.036 136.422 560.268 136.17C560.5 135.918 560.616 135.566 560.616 135.114C560.616 134.914 560.586 134.732 560.526 134.568C560.466 134.404 560.374 134.264 560.25 134.148C560.13 134.028 559.976 133.936 559.788 133.872C559.604 133.808 559.384 133.776 559.128 133.776H558.072V136.548H559.128ZM559.128 132.258C559.744 132.258 560.272 132.332 560.712 132.48C561.156 132.624 561.52 132.824 561.804 133.08C562.092 133.336 562.304 133.638 562.44 133.986C562.576 134.334 562.644 134.71 562.644 135.114C562.644 135.55 562.574 135.95 562.434 136.314C562.294 136.678 562.08 136.99 561.792 137.25C561.504 137.51 561.138 137.714 560.694 137.862C560.254 138.006 559.732 138.078 559.128 138.078H558.072V141H556.044V132.258H559.128ZM566.996 136.548C567.524 136.548 567.904 136.422 568.136 136.17C568.368 135.918 568.484 135.566 568.484 135.114C568.484 134.914 568.454 134.732 568.394 134.568C568.334 134.404 568.242 134.264 568.118 134.148C567.998 134.028 567.844 133.936 567.656 133.872C567.472 133.808 567.252 133.776 566.996 133.776H565.94V136.548H566.996ZM566.996 132.258C567.612 132.258 568.14 132.332 568.58 132.48C569.024 132.624 569.388 132.824 569.672 133.08C569.96 133.336 570.172 133.638 570.308 133.986C570.444 134.334 570.512 134.71 570.512 135.114C570.512 135.55 570.442 135.95 570.302 136.314C570.162 136.678 569.948 136.99 569.66 137.25C569.372 137.51 569.006 137.714 568.562 137.862C568.122 138.006 567.6 138.078 566.996 138.078H565.94V141H563.912V132.258H566.996ZM574.141 134.754C574.205 134.318 574.327 133.938 574.507 133.614C574.691 133.29 574.917 133.02 575.185 132.804C575.457 132.588 575.767 132.428 576.115 132.324C576.463 132.216 576.837 132.162 577.237 132.162C577.669 132.162 578.053 132.224 578.389 132.348C578.725 132.468 579.009 132.632 579.241 132.84C579.473 133.048 579.649 133.29 579.769 133.566C579.889 133.838 579.949 134.126 579.949 134.43C579.949 134.706 579.921 134.95 579.865 135.162C579.809 135.37 579.725 135.552 579.613 135.708C579.505 135.86 579.369 135.99 579.205 136.098C579.045 136.202 578.861 136.29 578.653 136.362C579.621 136.702 580.105 137.362 580.105 138.342C580.105 138.806 580.021 139.21 579.853 139.554C579.685 139.898 579.459 140.184 579.175 140.412C578.895 140.64 578.569 140.812 578.197 140.928C577.825 141.04 577.437 141.096 577.033 141.096C576.617 141.096 576.247 141.052 575.923 140.964C575.599 140.872 575.311 140.732 575.059 140.544C574.807 140.352 574.585 140.108 574.393 139.812C574.205 139.516 574.041 139.164 573.901 138.756L574.729 138.42C574.945 138.336 575.145 138.314 575.329 138.354C575.513 138.394 575.645 138.486 575.725 138.63C575.905 138.962 576.095 139.204 576.295 139.356C576.499 139.504 576.737 139.578 577.009 139.578C577.217 139.578 577.397 139.544 577.549 139.476C577.705 139.404 577.833 139.314 577.933 139.206C578.037 139.094 578.115 138.968 578.167 138.828C578.219 138.688 578.245 138.546 578.245 138.402C578.245 138.214 578.231 138.046 578.203 137.898C578.179 137.746 578.107 137.616 577.987 137.508C577.867 137.4 577.685 137.318 577.441 137.262C577.201 137.202 576.865 137.172 576.433 137.172V135.888C576.797 135.888 577.091 135.86 577.315 135.804C577.539 135.748 577.711 135.672 577.831 135.576C577.955 135.476 578.037 135.356 578.077 135.216C578.117 135.076 578.137 134.922 578.137 134.754C578.137 134.41 578.053 134.146 577.885 133.962C577.721 133.774 577.469 133.68 577.129 133.68C576.853 133.68 576.619 133.754 576.427 133.902C576.239 134.046 576.109 134.226 576.037 134.442C575.953 134.662 575.843 134.808 575.707 134.88C575.571 134.952 575.377 134.968 575.125 134.928L574.141 134.754Z" fill="#495057"/>
<path d="M710.709 68.658L709.899 66.264C709.839 66.112 709.775 65.934 709.707 65.73C709.639 65.522 709.571 65.298 709.503 65.058C709.443 65.302 709.379 65.528 709.311 65.736C709.243 65.944 709.179 66.124 709.119 66.276L708.315 68.658H710.709ZM713.931 72H712.359C712.183 72 712.041 71.96 711.933 71.88C711.825 71.796 711.743 71.69 711.687 71.562L711.171 70.038H707.847L707.331 71.562C707.287 71.674 707.207 71.776 707.091 71.868C706.979 71.956 706.839 72 706.671 72H705.087L708.471 63.258H710.547L713.931 72ZM717.944 67.548C718.472 67.548 718.852 67.422 719.084 67.17C719.316 66.918 719.432 66.566 719.432 66.114C719.432 65.914 719.402 65.732 719.342 65.568C719.282 65.404 719.19 65.264 719.066 65.148C718.946 65.028 718.792 64.936 718.604 64.872C718.42 64.808 718.2 64.776 717.944 64.776H716.888V67.548H717.944ZM717.944 63.258C718.56 63.258 719.088 63.332 719.528 63.48C719.972 63.624 720.336 63.824 720.62 64.08C720.908 64.336 721.12 64.638 721.256 64.986C721.392 65.334 721.46 65.71 721.46 66.114C721.46 66.55 721.39 66.95 721.25 67.314C721.11 67.678 720.896 67.99 720.608 68.25C720.32 68.51 719.954 68.714 719.51 68.862C719.07 69.006 718.548 69.078 717.944 69.078H716.888V72H714.86V63.258H717.944ZM725.813 67.548C726.341 67.548 726.721 67.422 726.953 67.17C727.185 66.918 727.301 66.566 727.301 66.114C727.301 65.914 727.271 65.732 727.211 65.568C727.151 65.404 727.059 65.264 726.935 65.148C726.815 65.028 726.661 64.936 726.473 64.872C726.289 64.808 726.069 64.776 725.813 64.776H724.757V67.548H725.813ZM725.813 63.258C726.429 63.258 726.957 63.332 727.397 63.48C727.841 63.624 728.205 63.824 728.489 64.08C728.777 64.336 728.989 64.638 729.125 64.986C729.261 65.334 729.329 65.71 729.329 66.114C729.329 66.55 729.259 66.95 729.119 67.314C728.979 67.678 728.765 67.99 728.477 68.25C728.189 68.51 727.823 68.714 727.379 68.862C726.939 69.006 726.417 69.078 725.813 69.078H724.757V72H722.729V63.258H725.813ZM740.907 63.258V72H739.851C739.695 72 739.563 71.976 739.455 71.928C739.351 71.876 739.247 71.788 739.143 71.664L735.021 66.45C735.037 66.606 735.047 66.758 735.051 66.906C735.059 67.05 735.063 67.186 735.063 67.314V72H733.275V63.258H734.343C734.431 63.258 734.505 63.262 734.565 63.27C734.625 63.278 734.679 63.294 734.727 63.318C734.775 63.338 734.821 63.368 734.865 63.408C734.909 63.448 734.959 63.502 735.015 63.57L739.173 68.82C739.153 68.652 739.139 68.49 739.131 68.334C739.123 68.174 739.119 68.024 739.119 67.884V63.258H740.907Z" fill="#495057"/>
<path d="M54 363.205V365.585H43.801V363.205H54ZM43.801 348.413H54V349.645C54 349.827 53.972 349.981 53.916 350.107C53.8553 350.228 53.7527 350.35 53.608 350.471L47.525 355.28C47.707 355.261 47.8843 355.25 48.057 355.245C48.225 355.236 48.3837 355.231 48.533 355.231H54V357.317H43.801V356.071C43.801 355.968 43.8057 355.882 43.815 355.812C43.8243 355.742 43.843 355.679 43.871 355.623C43.8943 355.567 43.9293 355.513 43.976 355.462C44.0227 355.411 44.0857 355.352 44.165 355.287L50.29 350.436C50.094 350.459 49.905 350.476 49.723 350.485C49.5363 350.494 49.3613 350.499 49.198 350.499H43.801V348.413ZM45.621 340.134H48.204V336.648H50.031V340.134H54V342.514H43.801V335.948H45.621V340.134ZM48.596 327.347C48.596 327.025 48.5563 326.752 48.477 326.528C48.393 326.299 48.2787 326.112 48.134 325.968C47.9893 325.823 47.8213 325.718 47.63 325.653C47.434 325.587 47.224 325.555 47 325.555C46.552 325.555 46.202 325.702 45.95 325.996C45.698 326.285 45.572 326.735 45.572 327.347V328.299H48.596V327.347ZM54 322.321V324.463C54 324.859 53.8507 325.144 53.552 325.317L50.591 327.011C50.465 327.09 50.374 327.179 50.318 327.277C50.2573 327.375 50.227 327.515 50.227 327.697V328.299H54V330.665H43.801V327.347C43.801 326.609 43.878 325.982 44.032 325.464C44.1813 324.941 44.3913 324.516 44.662 324.19C44.9327 323.858 45.2523 323.618 45.621 323.469C45.9897 323.319 46.391 323.245 46.825 323.245C47.1563 323.245 47.469 323.289 47.763 323.378C48.057 323.466 48.33 323.597 48.582 323.77C48.8293 323.942 49.051 324.157 49.247 324.414C49.443 324.666 49.604 324.957 49.73 325.289C49.8093 325.135 49.9097 324.99 50.031 324.855C50.1477 324.719 50.2877 324.598 50.451 324.491L54 322.321ZM50.101 312.153L47.308 313.098C47.1307 313.168 46.923 313.243 46.685 313.322C46.4423 313.402 46.181 313.481 45.901 313.56C46.1857 313.63 46.4493 313.705 46.692 313.784C46.9347 313.864 47.1447 313.938 47.322 314.008L50.101 314.946V312.153ZM54 308.394V310.228C54 310.434 53.9533 310.599 53.86 310.725C53.762 310.851 53.6383 310.947 53.489 311.012L51.711 311.614V315.492L53.489 316.094C53.6197 316.146 53.7387 316.239 53.846 316.374C53.9487 316.505 54 316.668 54 316.864V318.712L43.801 314.764V312.342L54 308.394ZM51.361 282.954C51.361 282.898 51.3727 282.842 51.396 282.786C51.4147 282.73 51.4497 282.677 51.501 282.625L52.488 281.687C53.0247 282.098 53.4307 282.614 53.706 283.234C53.9767 283.85 54.112 284.581 54.112 285.425C54.112 286.2 53.9813 286.895 53.72 287.511C53.454 288.123 53.09 288.643 52.628 289.072C52.1613 289.497 51.6107 289.824 50.976 290.052C50.3367 290.281 49.6437 290.395 48.897 290.395C48.1363 290.395 47.4387 290.272 46.804 290.024C46.1647 289.777 45.614 289.429 45.152 288.981C44.69 288.533 44.3307 287.997 44.074 287.371C43.8173 286.746 43.689 286.058 43.689 285.306C43.689 284.924 43.724 284.564 43.794 284.228C43.8593 283.888 43.9527 283.57 44.074 283.276C44.1907 282.982 44.333 282.712 44.501 282.464C44.669 282.217 44.851 281.998 45.047 281.806L46.118 282.604C46.1833 282.656 46.244 282.716 46.3 282.786C46.3513 282.856 46.377 282.954 46.377 283.08C46.377 283.164 46.3583 283.244 46.321 283.318C46.2837 283.393 46.2393 283.472 46.188 283.556C46.132 283.64 46.0737 283.734 46.013 283.836C45.9477 283.934 45.8893 284.053 45.838 284.193C45.782 284.329 45.7353 284.49 45.698 284.676C45.6607 284.858 45.642 285.073 45.642 285.32C45.642 285.712 45.7143 286.072 45.859 286.398C46.0037 286.72 46.216 287 46.496 287.238C46.7713 287.472 47.112 287.654 47.518 287.784C47.9193 287.91 48.379 287.973 48.897 287.973C49.4197 287.973 49.884 287.903 50.29 287.763C50.696 287.619 51.039 287.425 51.319 287.182C51.5943 286.935 51.8043 286.648 51.949 286.321C52.0937 285.995 52.166 285.645 52.166 285.271C52.166 285.057 52.1567 284.861 52.138 284.683C52.1147 284.506 52.0797 284.34 52.033 284.186C51.9817 284.032 51.9163 283.888 51.837 283.752C51.753 283.617 51.648 283.479 51.522 283.339C51.4753 283.283 51.438 283.223 51.41 283.157C51.3773 283.092 51.361 283.024 51.361 282.954ZM48.897 266.957C49.6343 266.957 50.3203 267.085 50.955 267.342C51.5897 267.594 52.1427 267.951 52.614 268.413C53.0807 268.875 53.447 269.433 53.713 270.086C53.979 270.735 54.112 271.456 54.112 272.249C54.112 273.042 53.979 273.766 53.713 274.419C53.447 275.072 53.0807 275.632 52.614 276.099C52.1427 276.561 51.5897 276.92 50.955 277.177C50.3203 277.429 49.6343 277.555 48.897 277.555C48.1597 277.555 47.4737 277.429 46.839 277.177C46.2043 276.92 45.6537 276.561 45.187 276.099C44.7203 275.632 44.354 275.072 44.088 274.419C43.822 273.766 43.689 273.042 43.689 272.249C43.689 271.456 43.8243 270.735 44.095 270.086C44.361 269.433 44.7273 268.875 45.194 268.413C45.6607 267.951 46.2113 267.594 46.846 267.342C47.4807 267.085 48.1643 266.957 48.897 266.957ZM48.897 269.379C48.393 269.379 47.9403 269.444 47.539 269.575C47.133 269.706 46.79 269.895 46.51 270.142C46.23 270.385 46.0153 270.683 45.866 271.038C45.7167 271.393 45.642 271.796 45.642 272.249C45.642 272.706 45.7167 273.115 45.866 273.474C46.0153 273.829 46.23 274.13 46.51 274.377C46.79 274.62 47.133 274.806 47.539 274.937C47.9403 275.068 48.393 275.133 48.897 275.133C49.4057 275.133 49.863 275.068 50.269 274.937C50.6703 274.806 51.011 274.62 51.291 274.377C51.571 274.13 51.7857 273.829 51.935 273.474C52.0797 273.115 52.152 272.706 52.152 272.249C52.152 271.796 52.0797 271.393 51.935 271.038C51.7857 270.683 51.571 270.385 51.291 270.142C51.011 269.895 50.6703 269.706 50.269 269.575C49.863 269.444 49.4057 269.379 48.897 269.379ZM45.873 256.01C45.985 256.08 46.069 256.154 46.125 256.234C46.181 256.308 46.209 256.406 46.209 256.528C46.209 256.635 46.1763 256.752 46.111 256.878C46.041 256.999 45.964 257.139 45.88 257.298C45.796 257.452 45.7213 257.629 45.656 257.83C45.586 258.03 45.551 258.259 45.551 258.516C45.551 258.959 45.6467 259.29 45.838 259.51C46.0247 259.724 46.279 259.832 46.601 259.832C46.8063 259.832 46.9767 259.766 47.112 259.636C47.2473 259.505 47.364 259.335 47.462 259.125C47.56 258.91 47.651 258.667 47.735 258.397C47.8143 258.121 47.9053 257.841 48.008 257.557C48.106 257.272 48.2227 256.994 48.358 256.724C48.4933 256.448 48.666 256.206 48.876 255.996C49.086 255.781 49.3427 255.608 49.646 255.478C49.9447 255.347 50.3063 255.282 50.731 255.282C51.2023 255.282 51.6433 255.363 52.054 255.527C52.4647 255.69 52.824 255.928 53.132 256.241C53.4353 256.549 53.6757 256.931 53.853 257.389C54.0257 257.841 54.112 258.357 54.112 258.936C54.112 259.253 54.0793 259.577 54.014 259.909C53.9487 260.235 53.8577 260.553 53.741 260.861C53.6197 261.169 53.4773 261.458 53.314 261.729C53.1507 261.999 52.9687 262.235 52.768 262.436L51.662 261.736C51.5827 261.68 51.5173 261.607 51.466 261.519C51.41 261.425 51.382 261.325 51.382 261.218C51.382 261.078 51.4263 260.938 51.515 260.798C51.6037 260.653 51.7017 260.492 51.809 260.315C51.9163 260.133 52.0143 259.925 52.103 259.692C52.1917 259.458 52.236 259.183 52.236 258.866C52.236 258.436 52.1427 258.103 51.956 257.865C51.7647 257.627 51.4637 257.508 51.053 257.508C50.815 257.508 50.6213 257.573 50.472 257.704C50.3227 257.834 50.199 258.007 50.101 258.222C50.003 258.432 49.9167 258.672 49.842 258.943C49.7673 259.213 49.6857 259.491 49.597 259.776C49.5037 260.06 49.3917 260.338 49.261 260.609C49.1257 260.879 48.9507 261.122 48.736 261.337C48.5167 261.547 48.246 261.717 47.924 261.848C47.5973 261.978 47.196 262.044 46.72 262.044C46.3373 262.044 45.964 261.967 45.6 261.813C45.236 261.659 44.9117 261.432 44.627 261.134C44.3423 260.835 44.116 260.469 43.948 260.035C43.7753 259.601 43.689 259.104 43.689 258.544C43.689 258.231 43.7147 257.928 43.766 257.634C43.8127 257.335 43.885 257.053 43.983 256.787C44.0763 256.521 44.1907 256.273 44.326 256.045C44.4567 255.811 44.606 255.604 44.774 255.422L45.873 256.01ZM45.677 242.644V245.514H54V247.88H45.677V250.75H43.801V242.644H45.677Z" fill="black"/>
<path d="M604.35 93.361C604.406 93.361 604.462 93.3727 604.518 93.396C604.574 93.4147 604.628 93.4497 604.679 93.501L605.617 94.488C605.206 95.0247 604.691 95.4307 604.07 95.706C603.454 95.9767 602.724 96.112 601.879 96.112C601.104 96.112 600.409 95.9813 599.793 95.72C599.182 95.454 598.661 95.09 598.232 94.628C597.807 94.1613 597.481 93.6107 597.252 92.976C597.023 92.3367 596.909 91.6437 596.909 90.897C596.909 90.1363 597.033 89.4387 597.28 88.804C597.527 88.1647 597.875 87.614 598.323 87.152C598.771 86.69 599.308 86.3307 599.933 86.074C600.558 85.8173 601.247 85.689 601.998 85.689C602.381 85.689 602.74 85.724 603.076 85.794C603.417 85.8593 603.734 85.9527 604.028 86.074C604.322 86.1907 604.593 86.333 604.84 86.501C605.087 86.669 605.307 86.851 605.498 87.047L604.7 88.118C604.649 88.1833 604.588 88.244 604.518 88.3C604.448 88.3513 604.35 88.377 604.224 88.377C604.14 88.377 604.061 88.3583 603.986 88.321C603.911 88.2837 603.832 88.2393 603.748 88.188C603.664 88.132 603.571 88.0737 603.468 88.013C603.37 87.9477 603.251 87.8893 603.111 87.838C602.976 87.782 602.815 87.7353 602.628 87.698C602.446 87.6607 602.231 87.642 601.984 87.642C601.592 87.642 601.233 87.7143 600.906 87.859C600.584 88.0037 600.304 88.216 600.066 88.496C599.833 88.7713 599.651 89.112 599.52 89.518C599.394 89.9193 599.331 90.379 599.331 90.897C599.331 91.4197 599.401 91.884 599.541 92.29C599.686 92.696 599.879 93.039 600.122 93.319C600.369 93.5943 600.656 93.8043 600.983 93.949C601.31 94.0937 601.66 94.166 602.033 94.166C602.248 94.166 602.444 94.1567 602.621 94.138C602.798 94.1147 602.964 94.0797 603.118 94.033C603.272 93.9817 603.417 93.9163 603.552 93.837C603.687 93.753 603.825 93.648 603.965 93.522C604.021 93.4753 604.082 93.438 604.147 93.41C604.212 93.3773 604.28 93.361 604.35 93.361ZM614.826 94.131C615.143 94.131 615.426 94.0797 615.673 93.977C615.925 93.8697 616.137 93.718 616.31 93.522C616.483 93.326 616.613 93.088 616.702 92.808C616.795 92.5233 616.842 92.2013 616.842 91.842V85.801H619.208V91.842C619.208 92.4673 619.105 93.0413 618.9 93.564C618.699 94.0867 618.41 94.537 618.032 94.915C617.654 95.293 617.194 95.587 616.653 95.797C616.112 96.007 615.503 96.112 614.826 96.112C614.145 96.112 613.533 96.007 612.992 95.797C612.451 95.587 611.991 95.293 611.613 94.915C611.235 94.537 610.946 94.0867 610.745 93.564C610.544 93.0413 610.444 92.4673 610.444 91.842V85.801H612.81V91.835C612.81 92.1943 612.854 92.5163 612.943 92.801C613.036 93.081 613.169 93.3213 613.342 93.522C613.515 93.718 613.725 93.8697 613.972 93.977C614.224 94.0797 614.509 94.131 614.826 94.131ZM628.294 90.596C628.616 90.596 628.889 90.5563 629.113 90.477C629.342 90.393 629.529 90.2787 629.673 90.134C629.818 89.9893 629.923 89.8213 629.988 89.63C630.054 89.434 630.086 89.224 630.086 89C630.086 88.552 629.939 88.202 629.645 87.95C629.356 87.698 628.906 87.572 628.294 87.572H627.342V90.596H628.294ZM633.32 96H631.178C630.782 96 630.497 95.8507 630.324 95.552L628.63 92.591C628.551 92.465 628.462 92.374 628.364 92.318C628.266 92.2573 628.126 92.227 627.944 92.227H627.342V96H624.976V85.801H628.294C629.032 85.801 629.659 85.878 630.177 86.032C630.7 86.1813 631.125 86.3913 631.451 86.662C631.783 86.9327 632.023 87.2523 632.172 87.621C632.322 87.9897 632.396 88.391 632.396 88.825C632.396 89.1563 632.352 89.469 632.263 89.763C632.175 90.057 632.044 90.33 631.871 90.582C631.699 90.8293 631.484 91.051 631.227 91.247C630.975 91.443 630.684 91.604 630.352 91.73C630.506 91.8093 630.651 91.9097 630.786 92.031C630.922 92.1477 631.043 92.2877 631.15 92.451L633.32 96ZM641.415 90.596C641.737 90.596 642.01 90.5563 642.234 90.477C642.463 90.393 642.65 90.2787 642.794 90.134C642.939 89.9893 643.044 89.8213 643.109 89.63C643.175 89.434 643.207 89.224 643.207 89C643.207 88.552 643.06 88.202 642.766 87.95C642.477 87.698 642.027 87.572 641.415 87.572H640.463V90.596H641.415ZM646.441 96H644.299C643.903 96 643.618 95.8507 643.445 95.552L641.751 92.591C641.672 92.465 641.583 92.374 641.485 92.318C641.387 92.2573 641.247 92.227 641.065 92.227H640.463V96H638.097V85.801H641.415C642.153 85.801 642.78 85.878 643.298 86.032C643.821 86.1813 644.246 86.3913 644.572 86.662C644.904 86.9327 645.144 87.2523 645.293 87.621C645.443 87.9897 645.517 88.391 645.517 88.825C645.517 89.1563 645.473 89.469 645.384 89.763C645.296 90.057 645.165 90.33 644.992 90.582C644.82 90.8293 644.605 91.051 644.348 91.247C644.096 91.443 643.805 91.604 643.473 91.73C643.627 91.8093 643.772 91.9097 643.907 92.031C644.043 92.1477 644.164 92.2877 644.271 92.451L646.441 96ZM653.599 87.621V90.001H656.805V91.751H653.599V94.18H657.785V96H651.219V85.801H657.785V87.621H653.599ZM672.068 85.801V96H670.836C670.654 96 670.5 95.972 670.374 95.916C670.253 95.8553 670.131 95.7527 670.01 95.608L665.201 89.525C665.22 89.707 665.231 89.8843 665.236 90.057C665.245 90.225 665.25 90.3837 665.25 90.533V96H663.164V85.801H664.41C664.513 85.801 664.599 85.8057 664.669 85.815C664.739 85.8243 664.802 85.843 664.858 85.871C664.914 85.8943 664.968 85.9293 665.019 85.976C665.07 86.0227 665.129 86.0857 665.194 86.165L670.045 92.29C670.022 92.094 670.005 91.905 669.996 91.723C669.987 91.5363 669.982 91.3613 669.982 91.198V85.801H672.068ZM685.296 87.677H682.426V96H680.06V87.677H677.19V85.801H685.296V87.677Z" fill="black"/>
<path d="M613.66 214.655C613.66 214.776 613.639 214.895 613.597 215.012C613.56 215.129 613.506 215.238 613.436 215.341L608.648 222.18H613.506V224H605.638V223.09C605.638 222.983 605.657 222.878 605.694 222.775C605.732 222.668 605.783 222.57 605.848 222.481L610.65 215.621H606.03V213.801H613.66V214.655ZM621.26 215.621V218.001H624.466V219.751H621.26V222.18H625.446V224H618.88V213.801H625.446V215.621H621.26ZM636.972 222.11V224H630.826V213.801H633.192V222.11H636.972ZM648.241 215.677H645.371V224H643.005V215.677H640.135V213.801H648.241V215.677ZM662.267 213.801V224H659.887V219.688H655.743V224H653.363V213.801H655.743V218.064H659.887V213.801H662.267ZM673.052 220.122V224H670.686V220.122L666.99 213.801H669.076C669.281 213.801 669.442 213.85 669.559 213.948C669.68 214.041 669.781 214.163 669.86 214.312L671.302 217.28C671.423 217.513 671.533 217.733 671.631 217.938C671.729 218.139 671.815 218.337 671.89 218.533C671.96 218.332 672.039 218.132 672.128 217.931C672.221 217.726 672.329 217.509 672.45 217.28L673.878 214.312C673.911 214.251 673.95 214.191 673.997 214.13C674.044 214.069 674.097 214.016 674.158 213.969C674.223 213.918 674.296 213.878 674.375 213.85C674.459 213.817 674.55 213.801 674.648 213.801H676.748L673.052 220.122Z" fill="black"/>
<path d="M46.192 58.216C45.208 58.216 44.314 57.982 43.51 57.514C42.706 57.046 42.064 56.362 41.584 55.462C41.116 54.55 40.882 53.446 40.882 52.15C40.882 50.866 41.122 49.768 41.602 48.856C42.094 47.932 42.748 47.23 43.564 46.75C44.38 46.258 45.28 46.012 46.264 46.012C47.008 46.012 47.668 46.162 48.244 46.462C48.82 46.762 49.294 47.11 49.666 47.506L48.55 48.856C48.25 48.544 47.914 48.298 47.542 48.118C47.182 47.926 46.774 47.83 46.318 47.83C45.682 47.83 45.112 48.004 44.608 48.352C44.116 48.688 43.726 49.174 43.438 49.81C43.162 50.446 43.024 51.208 43.024 52.096C43.024 53.44 43.318 54.496 43.906 55.264C44.494 56.02 45.28 56.398 46.264 56.398C46.792 56.398 47.26 56.29 47.668 56.074C48.076 55.846 48.448 55.552 48.784 55.192L49.9 56.506C49.42 57.058 48.868 57.484 48.244 57.784C47.632 58.072 46.948 58.216 46.192 58.216ZM55.1031 58.216C54.3711 58.216 53.6871 58.036 53.0511 57.676C52.4151 57.304 51.8991 56.776 51.5031 56.092C51.1071 55.396 50.9091 54.562 50.9091 53.59C50.9091 52.606 51.1071 51.772 51.5031 51.088C51.8991 50.392 52.4151 49.864 53.0511 49.504C53.6871 49.132 54.3711 48.946 55.1031 48.946C55.8471 48.946 56.5371 49.132 57.1731 49.504C57.8091 49.864 58.3251 50.392 58.7211 51.088C59.1171 51.772 59.3151 52.606 59.3151 53.59C59.3151 54.562 59.1171 55.396 58.7211 56.092C58.3251 56.776 57.8091 57.304 57.1731 57.676C56.5371 58.036 55.8471 58.216 55.1031 58.216ZM55.1031 56.524C55.7511 56.524 56.2611 56.254 56.6331 55.714C57.0051 55.174 57.1911 54.466 57.1911 53.59C57.1911 52.702 57.0051 51.988 56.6331 51.448C56.2611 50.908 55.7511 50.638 55.1031 50.638C54.4551 50.638 53.9451 50.908 53.5731 51.448C53.2131 51.988 53.0331 52.702 53.0331 53.59C53.0331 54.466 53.2131 55.174 53.5731 55.714C53.9451 56.254 54.4551 56.524 55.1031 56.524ZM63.5597 58.216C62.9597 58.216 62.3597 58.102 61.7597 57.874C61.1597 57.634 60.6437 57.34 60.2117 56.992L61.1837 55.66C61.5797 55.96 61.9757 56.2 62.3717 56.38C62.7677 56.56 63.1877 56.65 63.6317 56.65C64.1117 56.65 64.4657 56.548 64.6937 56.344C64.9217 56.14 65.0357 55.888 65.0357 55.588C65.0357 55.336 64.9397 55.132 64.7477 54.976C64.5677 54.808 64.3337 54.664 64.0457 54.544C63.7577 54.412 63.4577 54.286 63.1457 54.166C62.7617 54.022 62.3777 53.848 61.9937 53.644C61.6217 53.428 61.3157 53.158 61.0757 52.834C60.8357 52.498 60.7157 52.084 60.7157 51.592C60.7157 50.812 61.0037 50.176 61.5797 49.684C62.1557 49.192 62.9357 48.946 63.9197 48.946C64.5437 48.946 65.1017 49.054 65.5937 49.27C66.0857 49.486 66.5117 49.732 66.8717 50.008L65.9177 51.268C65.6057 51.04 65.2877 50.86 64.9637 50.728C64.6517 50.584 64.3217 50.512 63.9737 50.512C63.5297 50.512 63.1997 50.608 62.9837 50.8C62.7677 50.98 62.6597 51.208 62.6597 51.484C62.6597 51.832 62.8397 52.096 63.1997 52.276C63.5597 52.456 63.9797 52.63 64.4597 52.798C64.8677 52.942 65.2637 53.122 65.6477 53.338C66.0317 53.542 66.3497 53.812 66.6017 54.148C66.8657 54.484 66.9977 54.928 66.9977 55.48C66.9977 56.236 66.7037 56.884 66.1157 57.424C65.5277 57.952 64.6757 58.216 63.5597 58.216ZM71.4081 58.216C70.3881 58.216 69.6621 57.922 69.2301 57.334C68.8101 56.734 68.6001 55.96 68.6001 55.012V50.8H67.3401V49.252L68.7081 49.162L68.9601 46.75H70.6881V49.162H72.9381V50.8H70.6881V55.012C70.6881 56.044 71.1021 56.56 71.9301 56.56C72.0861 56.56 72.2481 56.542 72.4161 56.506C72.5841 56.458 72.7281 56.41 72.8481 56.362L73.2081 57.892C72.9681 57.976 72.6921 58.048 72.3801 58.108C72.0801 58.18 71.7561 58.216 71.4081 58.216ZM81.6195 58.216C80.8875 58.216 80.2035 58.036 79.5675 57.676C78.9315 57.304 78.4155 56.776 78.0195 56.092C77.6235 55.396 77.4255 54.562 77.4255 53.59C77.4255 52.606 77.6235 51.772 78.0195 51.088C78.4155 50.392 78.9315 49.864 79.5675 49.504C80.2035 49.132 80.8875 48.946 81.6195 48.946C82.3635 48.946 83.0535 49.132 83.6895 49.504C84.3255 49.864 84.8415 50.392 85.2375 51.088C85.6335 51.772 85.8315 52.606 85.8315 53.59C85.8315 54.562 85.6335 55.396 85.2375 56.092C84.8415 56.776 84.3255 57.304 83.6895 57.676C83.0535 58.036 82.3635 58.216 81.6195 58.216ZM81.6195 56.524C82.2675 56.524 82.7775 56.254 83.1495 55.714C83.5215 55.174 83.7075 54.466 83.7075 53.59C83.7075 52.702 83.5215 51.988 83.1495 51.448C82.7775 50.908 82.2675 50.638 81.6195 50.638C80.9715 50.638 80.4615 50.908 80.0895 51.448C79.7295 51.988 79.5495 52.702 79.5495 53.59C79.5495 54.466 79.7295 55.174 80.0895 55.714C80.4615 56.254 80.9715 56.524 81.6195 56.524ZM87.9701 58V50.8H86.7821V49.252L87.9701 49.162V48.244C87.9701 47.32 88.1981 46.564 88.6541 45.976C89.1101 45.376 89.8601 45.076 90.9041 45.076C91.2161 45.076 91.5161 45.106 91.8041 45.166C92.0921 45.226 92.3321 45.298 92.5241 45.382L92.1281 46.93C91.8041 46.786 91.4801 46.714 91.1561 46.714C90.4121 46.714 90.0401 47.212 90.0401 48.208V49.162H91.7681V50.8H90.0401V58H87.9701ZM96.5265 58V49.162H98.5965V58H96.5265ZM97.5705 47.614C97.1985 47.614 96.8985 47.506 96.6705 47.29C96.4425 47.074 96.3285 46.786 96.3285 46.426C96.3285 46.078 96.4425 45.796 96.6705 45.58C96.8985 45.364 97.1985 45.256 97.5705 45.256C97.9425 45.256 98.2425 45.364 98.4705 45.58C98.6985 45.796 98.8125 46.078 98.8125 46.426C98.8125 46.786 98.6985 47.074 98.4705 47.29C98.2425 47.506 97.9425 47.614 97.5705 47.614ZM101.037 58V49.162H102.747L102.891 50.35H102.963C103.359 49.966 103.791 49.636 104.259 49.36C104.727 49.084 105.261 48.946 105.861 48.946C106.809 48.946 107.499 49.252 107.931 49.864C108.363 50.476 108.579 51.34 108.579 52.456V58H106.509V52.726C106.509 51.994 106.401 51.478 106.185 51.178C105.969 50.878 105.615 50.728 105.123 50.728C104.739 50.728 104.397 50.824 104.097 51.016C103.809 51.196 103.479 51.466 103.107 51.826V58H101.037ZM111.27 58V50.8H110.082V49.252L111.27 49.162V48.244C111.27 47.32 111.498 46.564 111.954 45.976C112.41 45.376 113.16 45.076 114.204 45.076C114.516 45.076 114.816 45.106 115.104 45.166C115.392 45.226 115.632 45.298 115.824 45.382L115.428 46.93C115.104 46.786 114.78 46.714 114.456 46.714C113.712 46.714 113.34 47.212 113.34 48.208V49.162H115.068V50.8H113.34V58H111.27ZM116.423 58V49.162H118.133L118.277 50.728H118.349C118.661 50.152 119.039 49.714 119.483 49.414C119.927 49.102 120.383 48.946 120.851 48.946C121.271 48.946 121.607 49.006 121.859 49.126L121.499 50.926C121.343 50.878 121.199 50.842 121.067 50.818C120.935 50.794 120.773 50.782 120.581 50.782C120.233 50.782 119.867 50.92 119.483 51.196C119.099 51.46 118.769 51.928 118.493 52.6V58H116.423ZM124.605 58.216C123.837 58.216 123.207 57.976 122.715 57.496C122.235 57.016 121.995 56.392 121.995 55.624C121.995 54.676 122.409 53.944 123.237 53.428C124.065 52.9 125.385 52.54 127.197 52.348C127.185 51.88 127.059 51.478 126.819 51.142C126.591 50.794 126.177 50.62 125.577 50.62C125.145 50.62 124.719 50.704 124.299 50.872C123.891 51.04 123.489 51.244 123.093 51.484L122.337 50.098C122.829 49.786 123.381 49.516 123.993 49.288C124.617 49.06 125.277 48.946 125.973 48.946C127.077 48.946 127.899 49.276 128.439 49.936C128.991 50.584 129.267 51.526 129.267 52.762V58H127.557L127.413 57.028H127.341C126.945 57.364 126.519 57.646 126.063 57.874C125.619 58.102 125.133 58.216 124.605 58.216ZM125.271 56.596C125.631 56.596 125.955 56.512 126.243 56.344C126.543 56.164 126.861 55.924 127.197 55.624V53.644C125.997 53.8 125.163 54.034 124.695 54.346C124.227 54.646 123.993 55.018 123.993 55.462C123.993 55.858 124.113 56.146 124.353 56.326C124.593 56.506 124.899 56.596 125.271 56.596ZM134.01 58.216C133.41 58.216 132.81 58.102 132.21 57.874C131.61 57.634 131.094 57.34 130.662 56.992L131.634 55.66C132.03 55.96 132.426 56.2 132.822 56.38C133.218 56.56 133.638 56.65 134.082 56.65C134.562 56.65 134.916 56.548 135.144 56.344C135.372 56.14 135.486 55.888 135.486 55.588C135.486 55.336 135.39 55.132 135.198 54.976C135.018 54.808 134.784 54.664 134.496 54.544C134.208 54.412 133.908 54.286 133.596 54.166C133.212 54.022 132.828 53.848 132.444 53.644C132.072 53.428 131.766 53.158 131.526 52.834C131.286 52.498 131.166 52.084 131.166 51.592C131.166 50.812 131.454 50.176 132.03 49.684C132.606 49.192 133.386 48.946 134.37 48.946C134.994 48.946 135.552 49.054 136.044 49.27C136.536 49.486 136.962 49.732 137.322 50.008L136.368 51.268C136.056 51.04 135.738 50.86 135.414 50.728C135.102 50.584 134.772 50.512 134.424 50.512C133.98 50.512 133.65 50.608 133.434 50.8C133.218 50.98 133.11 51.208 133.11 51.484C133.11 51.832 133.29 52.096 133.65 52.276C134.01 52.456 134.43 52.63 134.91 52.798C135.318 52.942 135.714 53.122 136.098 53.338C136.482 53.542 136.8 53.812 137.052 54.148C137.316 54.484 137.448 54.928 137.448 55.48C137.448 56.236 137.154 56.884 136.566 57.424C135.978 57.952 135.126 58.216 134.01 58.216ZM141.858 58.216C140.838 58.216 140.112 57.922 139.68 57.334C139.26 56.734 139.05 55.96 139.05 55.012V50.8H137.79V49.252L139.158 49.162L139.41 46.75H141.138V49.162H143.388V50.8H141.138V55.012C141.138 56.044 141.552 56.56 142.38 56.56C142.536 56.56 142.698 56.542 142.866 56.506C143.034 56.458 143.178 56.41 143.298 56.362L143.658 57.892C143.418 57.976 143.142 58.048 142.83 58.108C142.53 58.18 142.206 58.216 141.858 58.216ZM145.048 58V49.162H146.758L146.902 50.728H146.974C147.286 50.152 147.664 49.714 148.108 49.414C148.552 49.102 149.008 48.946 149.476 48.946C149.896 48.946 150.232 49.006 150.484 49.126L150.124 50.926C149.968 50.878 149.824 50.842 149.692 50.818C149.56 50.794 149.398 50.782 149.206 50.782C148.858 50.782 148.492 50.92 148.108 51.196C147.724 51.46 147.394 51.928 147.118 52.6V58H145.048ZM154.191 58.216C153.243 58.216 152.553 57.91 152.121 57.298C151.689 56.686 151.473 55.822 151.473 54.706V49.162H153.543V54.436C153.543 55.168 153.651 55.684 153.867 55.984C154.083 56.284 154.431 56.434 154.911 56.434C155.295 56.434 155.631 56.338 155.919 56.146C156.219 55.954 156.537 55.642 156.873 55.21V49.162H158.943V58H157.251L157.089 56.704H157.035C156.651 57.16 156.231 57.526 155.775 57.802C155.319 58.078 154.791 58.216 154.191 58.216ZM165.055 58.216C164.251 58.216 163.525 58.036 162.877 57.676C162.241 57.304 161.731 56.776 161.347 56.092C160.975 55.396 160.789 54.562 160.789 53.59C160.789 52.606 160.993 51.772 161.401 51.088C161.809 50.392 162.349 49.864 163.021 49.504C163.705 49.132 164.437 48.946 165.217 48.946C165.781 48.946 166.273 49.042 166.693 49.234C167.113 49.426 167.485 49.66 167.809 49.936L166.801 51.286C166.573 51.082 166.339 50.926 166.099 50.818C165.859 50.698 165.601 50.638 165.325 50.638C164.617 50.638 164.035 50.908 163.579 51.448C163.135 51.988 162.913 52.702 162.913 53.59C162.913 54.466 163.129 55.174 163.561 55.714C164.005 56.254 164.575 56.524 165.271 56.524C165.619 56.524 165.943 56.452 166.243 56.308C166.555 56.152 166.837 55.972 167.089 55.768L167.935 57.136C167.527 57.496 167.071 57.766 166.567 57.946C166.063 58.126 165.559 58.216 165.055 58.216ZM172.418 58.216C171.398 58.216 170.672 57.922 170.24 57.334C169.82 56.734 169.61 55.96 169.61 55.012V50.8H168.35V49.252L169.718 49.162L169.97 46.75H171.698V49.162H173.948V50.8H171.698V55.012C171.698 56.044 172.112 56.56 172.94 56.56C173.096 56.56 173.258 56.542 173.426 56.506C173.594 56.458 173.738 56.41 173.858 56.362L174.218 57.892C173.978 57.976 173.702 58.048 173.39 58.108C173.09 58.18 172.766 58.216 172.418 58.216ZM178.236 58.216C177.288 58.216 176.598 57.91 176.166 57.298C175.734 56.686 175.518 55.822 175.518 54.706V49.162H177.588V54.436C177.588 55.168 177.696 55.684 177.912 55.984C178.128 56.284 178.476 56.434 178.956 56.434C179.34 56.434 179.676 56.338 179.964 56.146C180.264 55.954 180.582 55.642 180.918 55.21V49.162H182.988V58H181.296L181.134 56.704H181.08C180.696 57.16 180.276 57.526 179.82 57.802C179.364 58.078 178.836 58.216 178.236 58.216ZM185.41 58V49.162H187.12L187.264 50.728H187.336C187.648 50.152 188.026 49.714 188.47 49.414C188.914 49.102 189.37 48.946 189.838 48.946C190.258 48.946 190.594 49.006 190.846 49.126L190.486 50.926C190.33 50.878 190.186 50.842 190.054 50.818C189.922 50.794 189.76 50.782 189.568 50.782C189.22 50.782 188.854 50.92 188.47 51.196C188.086 51.46 187.756 51.928 187.48 52.6V58H185.41ZM195.529 58.216C194.713 58.216 193.975 58.036 193.315 57.676C192.655 57.304 192.133 56.776 191.749 56.092C191.365 55.396 191.173 54.562 191.173 53.59C191.173 52.63 191.365 51.802 191.749 51.106C192.145 50.41 192.655 49.876 193.279 49.504C193.903 49.132 194.557 48.946 195.241 48.946C196.045 48.946 196.717 49.126 197.257 49.486C197.797 49.834 198.205 50.326 198.481 50.962C198.757 51.586 198.895 52.312 198.895 53.14C198.895 53.572 198.865 53.908 198.805 54.148H193.189C193.285 54.928 193.567 55.534 194.035 55.966C194.503 56.398 195.091 56.614 195.799 56.614C196.183 56.614 196.537 56.56 196.861 56.452C197.197 56.332 197.527 56.17 197.851 55.966L198.553 57.262C198.133 57.538 197.665 57.766 197.149 57.946C196.633 58.126 196.093 58.216 195.529 58.216ZM193.171 52.744H197.095C197.095 52.06 196.945 51.526 196.645 51.142C196.345 50.746 195.895 50.548 195.295 50.548C194.779 50.548 194.317 50.74 193.909 51.124C193.513 51.496 193.267 52.036 193.171 52.744ZM206.217 58.216C205.449 58.216 204.819 57.976 204.327 57.496C203.847 57.016 203.607 56.392 203.607 55.624C203.607 54.676 204.021 53.944 204.849 53.428C205.677 52.9 206.997 52.54 208.809 52.348C208.797 51.88 208.671 51.478 208.431 51.142C208.203 50.794 207.789 50.62 207.189 50.62C206.757 50.62 206.331 50.704 205.911 50.872C205.503 51.04 205.101 51.244 204.705 51.484L203.949 50.098C204.441 49.786 204.993 49.516 205.605 49.288C206.229 49.06 206.889 48.946 207.585 48.946C208.689 48.946 209.511 49.276 210.051 49.936C210.603 50.584 210.879 51.526 210.879 52.762V58H209.169L209.025 57.028H208.953C208.557 57.364 208.131 57.646 207.675 57.874C207.231 58.102 206.745 58.216 206.217 58.216ZM206.883 56.596C207.243 56.596 207.567 56.512 207.855 56.344C208.155 56.164 208.473 55.924 208.809 55.624V53.644C207.609 53.8 206.775 54.034 206.307 54.346C205.839 54.646 205.605 55.018 205.605 55.462C205.605 55.858 205.725 56.146 205.965 56.326C206.205 56.506 206.511 56.596 206.883 56.596ZM213.157 58V49.162H214.867L215.011 50.35H215.083C215.479 49.966 215.911 49.636 216.379 49.36C216.847 49.084 217.381 48.946 217.981 48.946C218.929 48.946 219.619 49.252 220.051 49.864C220.483 50.476 220.699 51.34 220.699 52.456V58H218.629V52.726C218.629 51.994 218.521 51.478 218.305 51.178C218.089 50.878 217.735 50.728 217.243 50.728C216.859 50.728 216.517 50.824 216.217 51.016C215.929 51.196 215.599 51.466 215.227 51.826V58H213.157ZM226.125 58.216C225.021 58.216 224.139 57.808 223.479 56.992C222.819 56.176 222.489 55.042 222.489 53.59C222.489 52.63 222.663 51.802 223.011 51.106C223.371 50.41 223.839 49.876 224.415 49.504C224.991 49.132 225.597 48.946 226.233 48.946C226.737 48.946 227.163 49.036 227.511 49.216C227.871 49.384 228.219 49.618 228.555 49.918L228.483 48.496V45.292H230.553V58H228.843L228.699 57.046H228.627C228.303 57.37 227.925 57.646 227.493 57.874C227.061 58.102 226.605 58.216 226.125 58.216ZM226.629 56.506C227.289 56.506 227.907 56.176 228.483 55.516V51.394C228.183 51.118 227.883 50.926 227.583 50.818C227.283 50.71 226.983 50.656 226.683 50.656C226.119 50.656 225.633 50.914 225.225 51.43C224.829 51.934 224.631 52.648 224.631 53.572C224.631 54.52 224.805 55.246 225.153 55.75C225.501 56.254 225.993 56.506 226.629 56.506ZM239.489 58.216C238.385 58.216 237.503 57.808 236.843 56.992C236.183 56.176 235.853 55.042 235.853 53.59C235.853 52.63 236.027 51.802 236.375 51.106C236.735 50.41 237.203 49.876 237.779 49.504C238.355 49.132 238.961 48.946 239.597 48.946C240.101 48.946 240.527 49.036 240.875 49.216C241.235 49.384 241.583 49.618 241.919 49.918L241.847 48.496V45.292H243.917V58H242.207L242.063 57.046H241.991C241.667 57.37 241.289 57.646 240.857 57.874C240.425 58.102 239.969 58.216 239.489 58.216ZM239.993 56.506C240.653 56.506 241.271 56.176 241.847 55.516V51.394C241.547 51.118 241.247 50.926 240.947 50.818C240.647 50.71 240.347 50.656 240.047 50.656C239.483 50.656 238.997 50.914 238.589 51.43C238.193 51.934 237.995 52.648 237.995 53.572C237.995 54.52 238.169 55.246 238.517 55.75C238.865 56.254 239.357 56.506 239.993 56.506ZM250.133 58.216C249.317 58.216 248.579 58.036 247.919 57.676C247.259 57.304 246.737 56.776 246.353 56.092C245.969 55.396 245.777 54.562 245.777 53.59C245.777 52.63 245.969 51.802 246.353 51.106C246.749 50.41 247.259 49.876 247.883 49.504C248.507 49.132 249.161 48.946 249.845 48.946C250.649 48.946 251.321 49.126 251.861 49.486C252.401 49.834 252.809 50.326 253.085 50.962C253.361 51.586 253.499 52.312 253.499 53.14C253.499 53.572 253.469 53.908 253.409 54.148H247.793C247.889 54.928 248.171 55.534 248.639 55.966C249.107 56.398 249.695 56.614 250.403 56.614C250.787 56.614 251.141 56.56 251.465 56.452C251.801 56.332 252.131 56.17 252.455 55.966L253.157 57.262C252.737 57.538 252.269 57.766 251.753 57.946C251.237 58.126 250.697 58.216 250.133 58.216ZM247.775 52.744H251.699C251.699 52.06 251.549 51.526 251.249 51.142C250.949 50.746 250.499 50.548 249.899 50.548C249.383 50.548 248.921 50.74 248.513 51.124C248.117 51.496 247.871 52.036 247.775 52.744ZM257.256 58L254.178 49.162H256.284L257.688 53.752C257.808 54.184 257.928 54.622 258.048 55.066C258.18 55.51 258.306 55.96 258.426 56.416H258.498C258.63 55.96 258.756 55.51 258.876 55.066C259.008 54.622 259.134 54.184 259.254 53.752L260.658 49.162H262.656L259.65 58H257.256ZM268.74 58.216C267.72 58.216 266.82 57.97 266.04 57.478C265.26 56.974 264.648 56.266 264.204 55.354C263.772 54.43 263.556 53.332 263.556 52.06C263.556 50.788 263.772 49.702 264.204 48.802C264.648 47.902 265.26 47.212 266.04 46.732C266.82 46.252 267.72 46.012 268.74 46.012C269.772 46.012 270.678 46.252 271.458 46.732C272.238 47.212 272.844 47.902 273.276 48.802C273.72 49.702 273.942 50.788 273.942 52.06C273.942 53.332 273.72 54.43 273.276 55.354C272.844 56.266 272.238 56.974 271.458 57.478C270.678 57.97 269.772 58.216 268.74 58.216ZM268.74 56.398C269.664 56.398 270.402 56.008 270.954 55.228C271.506 54.436 271.782 53.38 271.782 52.06C271.782 50.74 271.506 49.708 270.954 48.964C270.402 48.208 269.664 47.83 268.74 47.83C267.816 47.83 267.078 48.208 266.526 48.964C265.974 49.708 265.698 50.74 265.698 52.06C265.698 53.38 265.974 54.436 266.526 55.228C267.078 56.008 267.816 56.398 268.74 56.398ZM275.917 61.492V49.162H277.627L277.771 50.098H277.843C278.215 49.786 278.629 49.516 279.085 49.288C279.553 49.06 280.027 48.946 280.507 48.946C281.611 48.946 282.463 49.354 283.063 50.17C283.675 50.986 283.981 52.078 283.981 53.446C283.981 54.454 283.801 55.318 283.441 56.038C283.081 56.746 282.613 57.286 282.037 57.658C281.473 58.03 280.861 58.216 280.201 58.216C279.817 58.216 279.433 58.132 279.049 57.964C278.665 57.784 278.293 57.544 277.933 57.244L277.987 58.72V61.492H275.917ZM279.769 56.506C280.357 56.506 280.849 56.248 281.245 55.732C281.641 55.216 281.839 54.46 281.839 53.464C281.839 52.576 281.689 51.886 281.389 51.394C281.089 50.902 280.603 50.656 279.931 50.656C279.307 50.656 278.659 50.986 277.987 51.646V55.768C278.311 56.032 278.623 56.224 278.923 56.344C279.223 56.452 279.505 56.506 279.769 56.506ZM288.273 58.216C287.673 58.216 287.073 58.102 286.473 57.874C285.873 57.634 285.357 57.34 284.925 56.992L285.897 55.66C286.293 55.96 286.689 56.2 287.085 56.38C287.481 56.56 287.901 56.65 288.345 56.65C288.825 56.65 289.179 56.548 289.407 56.344C289.635 56.14 289.749 55.888 289.749 55.588C289.749 55.336 289.653 55.132 289.461 54.976C289.281 54.808 289.047 54.664 288.759 54.544C288.471 54.412 288.171 54.286 287.859 54.166C287.475 54.022 287.091 53.848 286.707 53.644C286.335 53.428 286.029 53.158 285.789 52.834C285.549 52.498 285.429 52.084 285.429 51.592C285.429 50.812 285.717 50.176 286.293 49.684C286.869 49.192 287.649 48.946 288.633 48.946C289.257 48.946 289.815 49.054 290.307 49.27C290.799 49.486 291.225 49.732 291.585 50.008L290.631 51.268C290.319 51.04 290.001 50.86 289.677 50.728C289.365 50.584 289.035 50.512 288.687 50.512C288.243 50.512 287.913 50.608 287.697 50.8C287.481 50.98 287.373 51.208 287.373 51.484C287.373 51.832 287.553 52.096 287.913 52.276C288.273 52.456 288.693 52.63 289.173 52.798C289.581 52.942 289.977 53.122 290.361 53.338C290.745 53.542 291.063 53.812 291.315 54.148C291.579 54.484 291.711 54.928 291.711 55.48C291.711 56.236 291.417 56.884 290.829 57.424C290.241 57.952 289.389 58.216 288.273 58.216Z" fill="black"/>
<defs>
<filter id="filter0_f_5119_17" x="204" y="342" width="64" height="64" filterUnits="userSpaceOnUse" color-interpolation-filters="sRGB">
<feFlood flood-opacity="0" result="BackgroundImageFix"/>
<feBlend mode="normal" in="SourceGraphic" in2="BackgroundImageFix" result="shape"/>
<feGaussianBlur stdDeviation="14" result="effect1_foregroundBlur_5119_17"/>
</filter>
<filter id="filter1_f_5119_17" x="368" y="241" width="64" height="64" filterUnits="userSpaceOnUse" color-interpolation-filters="sRGB">
<feFlood flood-opacity="0" result="BackgroundImageFix"/>
<feBlend mode="normal" in="SourceGraphic" in2="BackgroundImageFix" result="shape"/>
<feGaussianBlur stdDeviation="14" result="effect1_foregroundBlur_5119_17"/>
</filter>
<filter id="filter2_f_5119_17" x="368" y="271" width="64" height="64" filterUnits="userSpaceOnUse" color-interpolation-filters="sRGB">
<feFlood flood-opacity="0" result="BackgroundImageFix"/>
<feBlend mode="normal" in="SourceGraphic" in2="BackgroundImageFix" result="shape"/>
<feGaussianBlur stdDeviation="14" result="effect1_foregroundBlur_5119_17"/>
</filter>
<filter id="filter3_f_5119_17" x="532" y="134" width="64" height="64" filterUnits="userSpaceOnUse" color-interpolation-filters="sRGB">
<feFlood flood-opacity="0" result="BackgroundImageFix"/>
<feBlend mode="normal" in="SourceGraphic" in2="BackgroundImageFix" result="shape"/>
<feGaussianBlur stdDeviation="14" result="effect1_foregroundBlur_5119_17"/>
</filter>
<filter id="filter4_f_5119_17" x="532" y="224" width="64" height="64" filterUnits="userSpaceOnUse" color-interpolation-filters="sRGB">
<feFlood flood-opacity="0" result="BackgroundImageFix"/>
<feBlend mode="normal" in="SourceGraphic" in2="BackgroundImageFix" result="shape"/>
<feGaussianBlur stdDeviation="14" result="effect1_foregroundBlur_5119_17"/>
</filter>
<linearGradient id="paint0_linear_5119_17" x1="398.5" y1="88" x2="398.5" y2="314" gradientUnits="userSpaceOnUse">
<stop stop-color="#FF8085"/>
<stop offset="1" stop-color="#945D5D" stop-opacity="0"/>
</linearGradient>
<linearGradient id="paint1_linear_5119_17" x1="398" y1="224" x2="398" y2="468" gradientUnits="userSpaceOnUse">
<stop stop-color="#5EDAB3"/>
<stop offset="1" stop-color="#5EDAB3" stop-opacity="0"/>
</linearGradient>
<linearGradient id="paint2_linear_5119_17" x1="724" y1="428" x2="72" y2="428" gradientUnits="userSpaceOnUse">
<stop/>
<stop offset="1" stop-color="#FF8276"/>
</linearGradient>
<linearGradient id="paint3_linear_5119_17" x1="724" y1="428" x2="72" y2="428" gradientUnits="userSpaceOnUse">
<stop stop-color="#2CBE90"/>
<stop offset="1" stop-color="#FF8276"/>
</linearGradient>
</defs>
</svg>
