<svg xmlns="http://www.w3.org/2000/svg" version="1.1" xmlns:xlink="http://www.w3.org/1999/xlink" xmlns:svgjs="http://svgjs.dev/svgjs" width="1440" height="800" preserveAspectRatio="none" viewBox="0 0 1440 800"><g mask="url(&quot;#SvgjsMask1571&quot;)" fill="none"><rect width="1440" height="800" x="0" y="0" fill="url(&quot;#SvgjsLinearGradient1572&quot;)"></rect><path d="M0 0L503.97 0L0 163.7z" fill="rgba(255, 255, 255, .1)"></path><path d="M0 163.7L503.97 0L660.14 0L0 220.22z" fill="rgba(255, 255, 255, .075)"></path><path d="M0 220.22L660.14 0L978.04 0L0 523.46z" fill="rgba(255, 255, 255, .05)"></path><path d="M0 523.46L978.04 0L1293.37 0L0 607.36z" fill="rgba(255, 255, 255, .025)"></path><path d="M1440 800L1274.3899999999999 800L1440 670.65z" fill="rgba(0, 0, 0, .1)"></path><path d="M1440 670.65L1274.3899999999999 800L574.6899999999998 800L1440 464.67999999999995z" fill="rgba(0, 0, 0, .075)"></path><path d="M1440 464.68L574.6899999999999 800L483.7699999999999 800L1440 438.83z" fill="rgba(0, 0, 0, .05)"></path><path d="M1440 438.83L483.77 800L410.94 800L1440 232.95999999999998z" fill="rgba(0, 0, 0, .025)"></path></g><defs><mask id="SvgjsMask1571"><rect width="1440" height="800" fill="#ffffff"></rect></mask><linearGradient x1="88.89%" y1="-20%" x2="11.11%" y2="120%" gradientUnits="userSpaceOnUse" id="SvgjsLinearGradient1572"><stop stop-color="rgba(14, 42, 71, 1)" offset="0"></stop><stop stop-color="rgba(124, 58, 237, 1)" offset="0.66"></stop></linearGradient></defs></svg>